<svg xmlns="http://www.w3.org/2000/svg" width="600" height="620" viewBox="0 0 600 620" role="img" aria-labelledby="title desc"><title id="title">Om Salunke — Python, Data &amp; AI</title><desc id="desc">Computer Science student. A softly animated dimensional software assembly, with the name and introduction held still.</desc><defs>
<linearGradient id="bg" x1="0" y1="0" x2="1" y2="1"><stop stop-color="#182733"/><stop offset="1" stop-color="#0c141d"/></linearGradient>
<linearGradient id="panel" x1="0" y1="0" x2="1" y2="1"><stop stop-color="#1c2c39"/><stop offset="1" stop-color="#101b25"/></linearGradient>
<linearGradient id="metal" x1="0" y1="0" x2="1" y2="1"><stop stop-color="#edf2f2"/><stop offset=".42" stop-color="#a2b6c1"/><stop offset="1" stop-color="#5e7d91"/></linearGradient>
<linearGradient id="blue" x1="0" y1="0" x2="1" y2="1"><stop stop-color="#d6eaf2"/><stop offset=".45" stop-color="#8bbbd0"/><stop offset="1" stop-color="#466f8a"/></linearGradient>
<linearGradient id="mint" x1="0" y1="0" x2="1" y2="1"><stop stop-color="#d8efe8"/><stop offset=".45" stop-color="#96c1b2"/><stop offset="1" stop-color="#527f73"/></linearGradient>
<linearGradient id="gold" x1="0" y1="0" x2="1" y2="1"><stop stop-color="#f1e5cd"/><stop offset=".5" stop-color="#c5b287"/><stop offset="1" stop-color="#8e7a57"/></linearGradient>
<linearGradient id="lavender" x1="0" y1="0" x2="1" y2="1"><stop stop-color="#e4e4ef"/><stop offset=".5" stop-color="#b0afcf"/><stop offset="1" stop-color="#777b9c"/></linearGradient>
<radialGradient id="shadow"><stop stop-color="#000" stop-opacity=".6"/><stop offset="1" stop-color="#000" stop-opacity="0"/></radialGradient>
<filter id="soft" x="-40%" y="-50%" width="180%" height="200%"><feDropShadow dx="0" dy="10" stdDeviation="8" flood-color="#04090e" flood-opacity=".42"/></filter>
</defs><g font-family="Segoe UI, Arial, sans-serif"><rect width="600" height="620" rx="20" fill="url(#bg)"/><text x="34" y="58" fill="#a5c8d5" font-size="14" font-weight="600" letter-spacing="2">OM SALUNKE / DEVELOPER PROFILE</text><text x="34" y="139" fill="#f3f5f4" font-size="59" font-weight="650">Om Salunke</text><text x="34" y="192" fill="#d0dce2" font-size="31" font-weight="400">Python, Data &amp; AI</text><text x="34" y="239" fill="#9cb1be" font-size="23" font-weight="400">Computer Science student</text><text x="34" y="274" fill="#9cb1be" font-size="22" font-weight="400">Learning by building practical software.</text><ellipse cx="302" cy="566" rx="216" ry="56" fill="url(#shadow)"/><g filter="url(#soft)"><g><polygon points="493.84,472.80 321.36,551.20 321.36,538.20 493.84,459.80" fill="#14242f" stroke="#d2e4ea" stroke-opacity=".17" stroke-width=".7" stroke-linejoin="round"/><polygon points="110.16,455.20 321.36,551.20 321.36,538.20 110.16,442.20" fill="#2a414f" stroke="#d2e4ea" stroke-opacity=".17" stroke-width=".7" stroke-linejoin="round"/><polygon points="282.64,363.80 493.84,459.80 321.36,538.20 110.16,442.20" fill="#3a5362" stroke="#d2e4ea" stroke-opacity=".17" stroke-width=".7" stroke-linejoin="round"/><polyline points="270.32,393.80 328.40,420.20 241.28,459.80 319.60,495.40" fill="none" stroke="#82aebd" stroke-width="2.5" stroke-linecap="round" stroke-linejoin="round"/></g></g><g filter="url(#soft)"><g><polygon points="370.64,408.40 295.84,442.40 295.84,428.40 370.64,394.40" fill="#14242f" stroke="#d2e4ea" stroke-opacity=".17" stroke-width=".7" stroke-linejoin="round"/><polygon points="203.44,400.40 295.84,442.40 295.84,428.40 203.44,386.40" fill="#2a414f" stroke="#d2e4ea" stroke-opacity=".17" stroke-width=".7" stroke-linejoin="round"/><polygon points="278.24,352.40 370.64,394.40 295.84,428.40 203.44,386.40" fill="#3a5362" stroke="#d2e4ea" stroke-opacity=".17" stroke-width=".7" stroke-linejoin="round"/><polygon points="353.92,386.00 295.84,412.40 295.84,395.40 353.92,369.00" fill="#3b617b" stroke="#d2e4ea" stroke-opacity=".17" stroke-width=".7" stroke-linejoin="round"/><polygon points="221.04,378.40 295.84,412.40 295.84,395.40 221.04,361.40" fill="#658fa5" stroke="#d2e4ea" stroke-opacity=".17" stroke-width=".7" stroke-linejoin="round"/><polygon points="279.12,335.00 353.92,369.00 295.84,395.40 221.04,361.40" fill="url(#blue)" stroke="#d2e4ea" stroke-opacity=".17" stroke-width=".7" stroke-linejoin="round"/><polygon points="325.76,363.80 322.24,365.40 322.24,363.40 325.76,361.80" fill="#536c7c" stroke="#d2e4ea" stroke-opacity=".17" stroke-width=".7" stroke-linejoin="round"/><polygon points="275.60,344.20 322.24,365.40 322.24,363.40 275.60,342.20" fill="#7d95a5" stroke="#d2e4ea" stroke-opacity=".17" stroke-width=".7" stroke-linejoin="round"/><polygon points="279.12,340.60 325.76,361.80 322.24,363.40 275.60,342.20" fill="url(#metal)" stroke="#d2e4ea" stroke-opacity=".17" stroke-width=".7" stroke-linejoin="round"/><polygon points="299.36,363.00 295.84,364.60 295.84,362.60 299.36,361.00" fill="#536c7c" stroke="#d2e4ea" stroke-opacity=".17" stroke-width=".7" stroke-linejoin="round"/><polygon points="263.28,349.80 295.84,364.60 295.84,362.60 263.28,347.80" fill="#7d95a5" stroke="#d2e4ea" stroke-opacity=".17" stroke-width=".7" stroke-linejoin="round"/><polygon points="266.80,346.20 299.36,361.00 295.84,362.60 263.28,347.80" fill="url(#metal)" stroke="#d2e4ea" stroke-opacity=".17" stroke-width=".7" stroke-linejoin="round"/><polygon points="306.40,377.40 302.88,379.00 302.88,377.00 306.40,375.40" fill="#536c7c" stroke="#d2e4ea" stroke-opacity=".17" stroke-width=".7" stroke-linejoin="round"/><polygon points="250.96,355.40 302.88,379.00 302.88,377.00 250.96,353.40" fill="#7d95a5" stroke="#d2e4ea" stroke-opacity=".17" stroke-width=".7" stroke-linejoin="round"/><polygon points="254.48,351.80 306.40,375.40 302.88,377.00 250.96,353.40" fill="url(#metal)" stroke="#d2e4ea" stroke-opacity=".17" stroke-width=".7" stroke-linejoin="round"/></g></g><g filter="url(#soft)"><g><polygon points="457.76,455.80 388.24,487.40 388.24,473.40 457.76,441.80" fill="#14242f" stroke="#d2e4ea" stroke-opacity=".17" stroke-width=".7" stroke-linejoin="round"/><polygon points="310.80,452.20 388.24,487.40 388.24,473.40 310.80,438.20" fill="#2a414f" stroke="#d2e4ea" stroke-opacity=".17" stroke-width=".7" stroke-linejoin="round"/><polygon points="380.32,406.60 457.76,441.80 388.24,473.40 310.80,438.20" fill="#3a5362" stroke="#d2e4ea" stroke-opacity=".17" stroke-width=".7" stroke-linejoin="round"/><polygon points="407.60,446.00 405.44,446.90 405.44,400.90 407.60,400.00" fill="#5f7e73" stroke="#d2e4ea" stroke-opacity="0" stroke-width=".7" stroke-linejoin="round"/><polygon points="405.44,446.90 403.11,447.71 403.11,401.71 405.44,400.90" fill="#618075" stroke="#d2e4ea" stroke-opacity="0" stroke-width=".7" stroke-linejoin="round"/><polygon points="403.11,447.71 400.64,448.43 400.64,402.43 403.11,401.71" fill="#628176" stroke="#d2e4ea" stroke-opacity="0" stroke-width=".7" stroke-linejoin="round"/><polygon points="400.64,448.43 398.04,449.04 398.04,403.04 400.64,402.43" fill="#638277" stroke="#d2e4ea" stroke-opacity="0" stroke-width=".7" stroke-linejoin="round"/><polygon points="398.04,449.04 395.33,449.55 395.33,403.55 398.04,403.04" fill="#658479" stroke="#d2e4ea" stroke-opacity="0" stroke-width=".7" stroke-linejoin="round"/><polygon points="395.33,449.55 392.54,449.95 392.54,403.95 395.33,403.55" fill="#66857a" stroke="#d2e4ea" stroke-opacity="0" stroke-width=".7" stroke-linejoin="round"/><polygon points="392.54,449.95 389.67,450.24 389.67,404.24 392.54,403.95" fill="#67867b" stroke="#d2e4ea" stroke-opacity="0" stroke-width=".7" stroke-linejoin="round"/><polygon points="389.67,450.24 386.77,450.42 386.77,404.42 389.67,404.24" fill="#68877c" stroke="#d2e4ea" stroke-opacity="0" stroke-width=".7" stroke-linejoin="round"/><polygon points="386.77,450.42 383.84,450.47 383.84,404.47 386.77,404.42" fill="#68877c" stroke="#d2e4ea" stroke-opacity="0" stroke-width=".7" stroke-linejoin="round"/><polygon points="383.84,450.47 380.91,450.42 380.91,404.42 383.84,404.47" fill="#69887d" stroke="#d2e4ea" stroke-opacity="0" stroke-width=".7" stroke-linejoin="round"/><polygon points="380.91,450.42 378.01,450.24 378.01,404.24 380.91,404.42" fill="#69887d" stroke="#d2e4ea" stroke-opacity="0" stroke-width=".7" stroke-linejoin="round"/><polygon points="378.01,450.24 375.14,449.95 375.14,403.95 378.01,404.24" fill="#69887d" stroke="#d2e4ea" stroke-opacity="0" stroke-width=".7" stroke-linejoin="round"/><polygon points="375.14,449.95 372.35,449.55 372.35,403.55 375.14,403.95" fill="#69887d" stroke="#d2e4ea" stroke-opacity="0" stroke-width=".7" stroke-linejoin="round"/><polygon points="372.35,449.55 369.64,449.04 369.64,403.04 372.35,403.55" fill="#69887d" stroke="#d2e4ea" stroke-opacity="0" stroke-width=".7" stroke-linejoin="round"/><polygon points="369.64,449.04 367.04,448.43 367.04,402.43 369.64,403.04" fill="#69887d" stroke="#d2e4ea" stroke-opacity="0" stroke-width=".7" stroke-linejoin="round"/><polygon points="367.04,448.43 364.57,447.71 364.57,401.71 367.04,402.43" fill="#68877c" stroke="#d2e4ea" stroke-opacity="0" stroke-width=".7" stroke-linejoin="round"/><polygon points="364.57,447.71 362.24,446.90 362.24,400.90 364.57,401.71" fill="#68877c" stroke="#d2e4ea" stroke-opacity="0" stroke-width=".7" stroke-linejoin="round"/><polygon points="362.24,446.90 360.08,446.00 360.08,400.00 362.24,400.90" fill="#67867b" stroke="#d2e4ea" stroke-opacity="0" stroke-width=".7" stroke-linejoin="round"/><polygon points="360.08,446.00 358.10,445.02 358.10,399.02 360.08,400.00" fill="#66857a" stroke="#d2e4ea" stroke-opacity="0" stroke-width=".7" stroke-linejoin="round"/><polygon points="358.10,445.02 356.32,443.96 356.32,397.96 358.10,399.02" fill="#658479" stroke="#d2e4ea" stroke-opacity="0" stroke-width=".7" stroke-linejoin="round"/><polygon points="356.32,443.96 354.74,442.84 354.74,396.84 356.32,397.96" fill="#638277" stroke="#d2e4ea" stroke-opacity="0" stroke-width=".7" stroke-linejoin="round"/><polygon points="354.74,442.84 353.39,441.65 353.39,395.65 354.74,396.84" fill="#628176" stroke="#d2e4ea" stroke-opacity="0" stroke-width=".7" stroke-linejoin="round"/><polygon points="353.39,441.65 352.26,440.42 352.26,394.42 353.39,395.65" fill="#618075" stroke="#d2e4ea" stroke-opacity="0" stroke-width=".7" stroke-linejoin="round"/><polygon points="352.26,440.42 351.38,439.15 351.38,393.15 352.26,394.42" fill="#5f7e73" stroke="#d2e4ea" stroke-opacity="0" stroke-width=".7" stroke-linejoin="round"/><polygon points="351.38,439.15 350.75,437.85 350.75,391.85 351.38,393.15" fill="#5d7c71" stroke="#d2e4ea" stroke-opacity="0" stroke-width=".7" stroke-linejoin="round"/><polygon points="350.75,437.85 350.37,436.53 350.37,390.53 350.75,391.85" fill="#5b7a6f" stroke="#d2e4ea" stroke-opacity="0" stroke-width=".7" stroke-linejoin="round"/><polygon points="350.37,436.53 350.24,435.20 350.24,389.20 350.37,390.53" fill="#59786d" stroke="#d2e4ea" stroke-opacity="0" stroke-width=".7" stroke-linejoin="round"/><polygon points="417.44,435.20 417.31,436.53 417.31,390.53 417.44,389.20" fill="#4e6d62" stroke="#d2e4ea" stroke-opacity="0" stroke-width=".7" stroke-linejoin="round"/><polygon points="417.31,436.53 416.93,437.85 416.93,391.85 417.31,390.53" fill="#4f6e63" stroke="#d2e4ea" stroke-opacity="0" stroke-width=".7" stroke-linejoin="round"/><polygon points="416.93,437.85 416.30,439.15 416.30,393.15 416.93,391.85" fill="#517065" stroke="#d2e4ea" stroke-opacity="0" stroke-width=".7" stroke-linejoin="round"/><polygon points="416.30,439.15 415.42,440.42 415.42,394.42 416.30,393.15" fill="#547368" stroke="#d2e4ea" stroke-opacity="0" stroke-width=".7" stroke-linejoin="round"/><polygon points="415.42,440.42 414.29,441.65 414.29,395.65 415.42,394.42" fill="#56756a" stroke="#d2e4ea" stroke-opacity="0" stroke-width=".7" stroke-linejoin="round"/><polygon points="414.29,441.65 412.94,442.84 412.94,396.84 414.29,395.65" fill="#57766b" stroke="#d2e4ea" stroke-opacity="0" stroke-width=".7" stroke-linejoin="round"/><polygon points="412.94,442.84 411.36,443.96 411.36,397.96 412.94,396.84" fill="#59786d" stroke="#d2e4ea" stroke-opacity="0" stroke-width=".7" stroke-linejoin="round"/><polygon points="411.36,443.96 409.58,445.02 409.58,399.02 411.36,397.96" fill="#5b7a6f" stroke="#d2e4ea" stroke-opacity="0" stroke-width=".7" stroke-linejoin="round"/><polygon points="409.58,445.02 407.60,446.00 407.60,400.00 409.58,399.02" fill="#5d7c71" stroke="#d2e4ea" stroke-opacity="0" stroke-width=".7" stroke-linejoin="round"/><polygon points="407.60,400.00 406.00,400.68 404.30,401.32 402.51,401.90 400.64,402.43 398.70,402.90 396.70,403.31 394.64,403.66 392.54,403.95 390.40,404.18 388.23,404.34 386.04,404.44 383.84,404.47 381.64,404.44 379.45,404.34 377.28,404.18 375.14,403.95 373.04,403.66 370.98,403.31 368.98,402.90 367.04,402.43 365.17,401.90 363.38,401.32 361.68,400.68 360.08,400.00 358.58,399.27 357.18,398.50 355.90,397.69 354.74,396.84 353.70,395.96 352.80,395.04 352.02,394.11 351.38,393.15 350.88,392.18 350.53,391.19 350.31,390.20 350.24,389.20 350.31,388.20 350.53,387.21 350.88,386.22 351.38,385.25 352.02,384.29 352.80,383.36 353.70,382.44 354.74,381.56 355.90,380.71 357.18,379.90 358.58,379.13 360.08,378.40 361.68,377.72 363.38,377.08 365.17,376.50 367.04,375.97 368.98,375.50 370.98,375.09 373.04,374.74 375.14,374.45 377.28,374.22 379.45,374.06 381.64,373.96 383.84,373.93 386.04,373.96 388.23,374.06 390.40,374.22 392.54,374.45 394.64,374.74 396.70,375.09 398.70,375.50 400.64,375.97 402.51,376.50 404.30,377.08 406.00,377.72 407.60,378.40 409.10,379.13 410.50,379.90 411.78,380.71 412.94,381.56 413.98,382.44 414.88,383.36 415.66,384.29 416.30,385.25 416.80,386.22 417.15,387.21 417.37,388.20 417.44,389.20 417.37,390.20 417.15,391.19 416.80,392.18 416.30,393.15 415.66,394.11 414.88,395.04 413.98,395.96 412.94,396.84 411.78,397.69 410.50,398.50 409.10,399.27" fill="url(#mint)" stroke="#d2e4ea" stroke-opacity=".3" stroke-width=".7" stroke-linejoin="round"/><polygon points="407.60,397.00 405.44,397.90 405.44,390.90 407.60,390.00" fill="#5f7e73" stroke="#d2e4ea" stroke-opacity="0" stroke-width=".7" stroke-linejoin="round"/><polygon points="405.44,397.90 403.11,398.71 403.11,391.71 405.44,390.90" fill="#618075" stroke="#d2e4ea" stroke-opacity="0" stroke-width=".7" stroke-linejoin="round"/><polygon points="403.11,398.71 400.64,399.43 400.64,392.43 403.11,391.71" fill="#628176" stroke="#d2e4ea" stroke-opacity="0" stroke-width=".7" stroke-linejoin="round"/><polygon points="400.64,399.43 398.04,400.04 398.04,393.04 400.64,392.43" fill="#638277" stroke="#d2e4ea" stroke-opacity="0" stroke-width=".7" stroke-linejoin="round"/><polygon points="398.04,400.04 395.33,400.55 395.33,393.55 398.04,393.04" fill="#658479" stroke="#d2e4ea" stroke-opacity="0" stroke-width=".7" stroke-linejoin="round"/><polygon points="395.33,400.55 392.54,400.95 392.54,393.95 395.33,393.55" fill="#66857a" stroke="#d2e4ea" stroke-opacity="0" stroke-width=".7" stroke-linejoin="round"/><polygon points="392.54,400.95 389.67,401.24 389.67,394.24 392.54,393.95" fill="#67867b" stroke="#d2e4ea" stroke-opacity="0" stroke-width=".7" stroke-linejoin="round"/><polygon points="389.67,401.24 386.77,401.42 386.77,394.42 389.67,394.24" fill="#68877c" stroke="#d2e4ea" stroke-opacity="0" stroke-width=".7" stroke-linejoin="round"/><polygon points="386.77,401.42 383.84,401.47 383.84,394.47 386.77,394.42" fill="#68877c" stroke="#d2e4ea" stroke-opacity="0" stroke-width=".7" stroke-linejoin="round"/><polygon points="383.84,401.47 380.91,401.42 380.91,394.42 383.84,394.47" fill="#69887d" stroke="#d2e4ea" stroke-opacity="0" stroke-width=".7" stroke-linejoin="round"/><polygon points="380.91,401.42 378.01,401.24 378.01,394.24 380.91,394.42" fill="#69887d" stroke="#d2e4ea" stroke-opacity="0" stroke-width=".7" stroke-linejoin="round"/><polygon points="378.01,401.24 375.14,400.95 375.14,393.95 378.01,394.24" fill="#69887d" stroke="#d2e4ea" stroke-opacity="0" stroke-width=".7" stroke-linejoin="round"/><polygon points="375.14,400.95 372.35,400.55 372.35,393.55 375.14,393.95" fill="#69887d" stroke="#d2e4ea" stroke-opacity="0" stroke-width=".7" stroke-linejoin="round"/><polygon points="372.35,400.55 369.64,400.04 369.64,393.04 372.35,393.55" fill="#69887d" stroke="#d2e4ea" stroke-opacity="0" stroke-width=".7" stroke-linejoin="round"/><polygon points="369.64,400.04 367.04,399.43 367.04,392.43 369.64,393.04" fill="#69887d" stroke="#d2e4ea" stroke-opacity="0" stroke-width=".7" stroke-linejoin="round"/><polygon points="367.04,399.43 364.57,398.71 364.57,391.71 367.04,392.43" fill="#68877c" stroke="#d2e4ea" stroke-opacity="0" stroke-width=".7" stroke-linejoin="round"/><polygon points="364.57,398.71 362.24,397.90 362.24,390.90 364.57,391.71" fill="#68877c" stroke="#d2e4ea" stroke-opacity="0" stroke-width=".7" stroke-linejoin="round"/><polygon points="362.24,397.90 360.08,397.00 360.08,390.00 362.24,390.90" fill="#67867b" stroke="#d2e4ea" stroke-opacity="0" stroke-width=".7" stroke-linejoin="round"/><polygon points="360.08,397.00 358.10,396.02 358.10,389.02 360.08,390.00" fill="#66857a" stroke="#d2e4ea" stroke-opacity="0" stroke-width=".7" stroke-linejoin="round"/><polygon points="358.10,396.02 356.32,394.96 356.32,387.96 358.10,389.02" fill="#658479" stroke="#d2e4ea" stroke-opacity="0" stroke-width=".7" stroke-linejoin="round"/><polygon points="356.32,394.96 354.74,393.84 354.74,386.84 356.32,387.96" fill="#638277" stroke="#d2e4ea" stroke-opacity="0" stroke-width=".7" stroke-linejoin="round"/><polygon points="354.74,393.84 353.39,392.65 353.39,385.65 354.74,386.84" fill="#628176" stroke="#d2e4ea" stroke-opacity="0" stroke-width=".7" stroke-linejoin="round"/><polygon points="353.39,392.65 352.26,391.42 352.26,384.42 353.39,385.65" fill="#618075" stroke="#d2e4ea" stroke-opacity="0" stroke-width=".7" stroke-linejoin="round"/><polygon points="352.26,391.42 351.38,390.15 351.38,383.15 352.26,384.42" fill="#5f7e73" stroke="#d2e4ea" stroke-opacity="0" stroke-width=".7" stroke-linejoin="round"/><polygon points="351.38,390.15 350.75,388.85 350.75,381.85 351.38,383.15" fill="#5d7c71" stroke="#d2e4ea" stroke-opacity="0" stroke-width=".7" stroke-linejoin="round"/><polygon points="350.75,388.85 350.37,387.53 350.37,380.53 350.75,381.85" fill="#5b7a6f" stroke="#d2e4ea" stroke-opacity="0" stroke-width=".7" stroke-linejoin="round"/><polygon points="350.37,387.53 350.24,386.20 350.24,379.20 350.37,380.53" fill="#59786d" stroke="#d2e4ea" stroke-opacity="0" stroke-width=".7" stroke-linejoin="round"/><polygon points="417.44,386.20 417.31,387.53 417.31,380.53 417.44,379.20" fill="#4e6d62" stroke="#d2e4ea" stroke-opacity="0" stroke-width=".7" stroke-linejoin="round"/><polygon points="417.31,387.53 416.93,388.85 416.93,381.85 417.31,380.53" fill="#4f6e63" stroke="#d2e4ea" stroke-opacity="0" stroke-width=".7" stroke-linejoin="round"/><polygon points="416.93,388.85 416.30,390.15 416.30,383.15 416.93,381.85" fill="#517065" stroke="#d2e4ea" stroke-opacity="0" stroke-width=".7" stroke-linejoin="round"/><polygon points="416.30,390.15 415.42,391.42 415.42,384.42 416.30,383.15" fill="#547368" stroke="#d2e4ea" stroke-opacity="0" stroke-width=".7" stroke-linejoin="round"/><polygon points="415.42,391.42 414.29,392.65 414.29,385.65 415.42,384.42" fill="#56756a" stroke="#d2e4ea" stroke-opacity="0" stroke-width=".7" stroke-linejoin="round"/><polygon points="414.29,392.65 412.94,393.84 412.94,386.84 414.29,385.65" fill="#57766b" stroke="#d2e4ea" stroke-opacity="0" stroke-width=".7" stroke-linejoin="round"/><polygon points="412.94,393.84 411.36,394.96 411.36,387.96 412.94,386.84" fill="#59786d" stroke="#d2e4ea" stroke-opacity="0" stroke-width=".7" stroke-linejoin="round"/><polygon points="411.36,394.96 409.58,396.02 409.58,389.02 411.36,387.96" fill="#5b7a6f" stroke="#d2e4ea" stroke-opacity="0" stroke-width=".7" stroke-linejoin="round"/><polygon points="409.58,396.02 407.60,397.00 407.60,390.00 409.58,389.02" fill="#5d7c71" stroke="#d2e4ea" stroke-opacity="0" stroke-width=".7" stroke-linejoin="round"/><polygon points="407.60,390.00 406.00,390.68 404.30,391.32 402.51,391.90 400.64,392.43 398.70,392.90 396.70,393.31 394.64,393.66 392.54,393.95 390.40,394.18 388.23,394.34 386.04,394.44 383.84,394.47 381.64,394.44 379.45,394.34 377.28,394.18 375.14,393.95 373.04,393.66 370.98,393.31 368.98,392.90 367.04,392.43 365.17,391.90 363.38,391.32 361.68,390.68 360.08,390.00 358.58,389.27 357.18,388.50 355.90,387.69 354.74,386.84 353.70,385.96 352.80,385.04 352.02,384.11 351.38,383.15 350.88,382.18 350.53,381.19 350.31,380.20 350.24,379.20 350.31,378.20 350.53,377.21 350.88,376.22 351.38,375.25 352.02,374.29 352.80,373.36 353.70,372.44 354.74,371.56 355.90,370.71 357.18,369.90 358.58,369.13 360.08,368.40 361.68,367.72 363.38,367.08 365.17,366.50 367.04,365.97 368.98,365.50 370.98,365.09 373.04,364.74 375.14,364.45 377.28,364.22 379.45,364.06 381.64,363.96 383.84,363.93 386.04,363.96 388.23,364.06 390.40,364.22 392.54,364.45 394.64,364.74 396.70,365.09 398.70,365.50 400.64,365.97 402.51,366.50 404.30,367.08 406.00,367.72 407.60,368.40 409.10,369.13 410.50,369.90 411.78,370.71 412.94,371.56 413.98,372.44 414.88,373.36 415.66,374.29 416.30,375.25 416.80,376.22 417.15,377.21 417.37,378.20 417.44,379.20 417.37,380.20 417.15,381.19 416.80,382.18 416.30,383.15 415.66,384.11 414.88,385.04 413.98,385.96 412.94,386.84 411.78,387.69 410.50,388.50 409.10,389.27" fill="url(#mint)" stroke="#d2e4ea" stroke-opacity=".3" stroke-width=".7" stroke-linejoin="round"/></g></g><g filter="url(#soft)"><g><polygon points="344.24,482.00 278.24,512.00 278.24,498.00 344.24,468.00" fill="#14242f" stroke="#d2e4ea" stroke-opacity=".17" stroke-width=".7" stroke-linejoin="round"/><polygon points="181.44,468.00 278.24,512.00 278.24,498.00 181.44,454.00" fill="#2a414f" stroke="#d2e4ea" stroke-opacity=".17" stroke-width=".7" stroke-linejoin="round"/><polygon points="247.44,424.00 344.24,468.00 278.24,498.00 181.44,454.00" fill="#3a5362" stroke="#d2e4ea" stroke-opacity=".17" stroke-width=".7" stroke-linejoin="round"/><polygon points="326.64,459.00 279.12,480.60 279.12,468.60 326.64,447.00" fill="#606383" stroke="#d2e4ea" stroke-opacity=".17" stroke-width=".7" stroke-linejoin="round"/><polygon points="200.80,445.00 279.12,480.60 279.12,468.60 200.80,433.00" fill="#9090b4" stroke="#d2e4ea" stroke-opacity=".17" stroke-width=".7" stroke-linejoin="round"/><polygon points="248.32,411.40 326.64,447.00 279.12,468.60 200.80,433.00" fill="url(#lavender)" stroke="#d2e4ea" stroke-opacity=".17" stroke-width=".7" stroke-linejoin="round"/><polygon points="259.76,424.00 234.24,435.60 234.24,426.60 259.76,415.00" fill="#606383" stroke="#d2e4ea" stroke-opacity=".17" stroke-width=".7" stroke-linejoin="round"/><polygon points="223.68,430.80 234.24,435.60 234.24,426.60 223.68,421.80" fill="#9090b4" stroke="#d2e4ea" stroke-opacity=".17" stroke-width=".7" stroke-linejoin="round"/><polygon points="249.20,410.20 259.76,415.00 234.24,426.60 223.68,421.80" fill="url(#lavender)" stroke="#d2e4ea" stroke-opacity=".17" stroke-width=".7" stroke-linejoin="round"/><polygon points="281.76,434.00 256.24,445.60 256.24,426.60 281.76,415.00" fill="#606383" stroke="#d2e4ea" stroke-opacity=".17" stroke-width=".7" stroke-linejoin="round"/><polygon points="245.68,440.80 256.24,445.60 256.24,426.60 245.68,421.80" fill="#9090b4" stroke="#d2e4ea" stroke-opacity=".17" stroke-width=".7" stroke-linejoin="round"/><polygon points="271.20,410.20 281.76,415.00 256.24,426.60 245.68,421.80" fill="url(#lavender)" stroke="#d2e4ea" stroke-opacity=".17" stroke-width=".7" stroke-linejoin="round"/><polygon points="303.76,444.00 278.24,455.60 278.24,426.60 303.76,415.00" fill="#606383" stroke="#d2e4ea" stroke-opacity=".17" stroke-width=".7" stroke-linejoin="round"/><polygon points="267.68,450.80 278.24,455.60 278.24,426.60 267.68,421.80" fill="#9090b4" stroke="#d2e4ea" stroke-opacity=".17" stroke-width=".7" stroke-linejoin="round"/><polygon points="293.20,410.20 303.76,415.00 278.24,426.60 267.68,421.80" fill="url(#lavender)" stroke="#d2e4ea" stroke-opacity=".17" stroke-width=".7" stroke-linejoin="round"/></g></g><text x="35" y="588" fill="#9cb9c8" font-size="15" font-weight="500" letter-spacing="2">BUILD / CHECK / IMPROVE</text></g></svg>