<svg xmlns="http://www.w3.org/2000/svg" width="1200" height="276" viewBox="0 0 1200 276" role="img" aria-labelledby="title desc"><title id="title">Current focus — Maker/Checker workflow design</title><desc id="desc">Design in progress: source, Maker, deterministic checks, Checker, then acceptance or human review. Animation represents the planned flow, not live processing.</desc><defs>
<linearGradient id="bg" x1="0" y1="0" x2="1" y2="1"><stop stop-color="#182733"/><stop offset="1" stop-color="#0c141d"/></linearGradient>
<linearGradient id="panel" x1="0" y1="0" x2="1" y2="1"><stop stop-color="#1c2c39"/><stop offset="1" stop-color="#101b25"/></linearGradient>
<linearGradient id="metal" x1="0" y1="0" x2="1" y2="1"><stop stop-color="#edf2f2"/><stop offset=".42" stop-color="#a2b6c1"/><stop offset="1" stop-color="#5e7d91"/></linearGradient>
<linearGradient id="blue" x1="0" y1="0" x2="1" y2="1"><stop stop-color="#d6eaf2"/><stop offset=".45" stop-color="#8bbbd0"/><stop offset="1" stop-color="#466f8a"/></linearGradient>
<linearGradient id="mint" x1="0" y1="0" x2="1" y2="1"><stop stop-color="#d8efe8"/><stop offset=".45" stop-color="#96c1b2"/><stop offset="1" stop-color="#527f73"/></linearGradient>
<linearGradient id="gold" x1="0" y1="0" x2="1" y2="1"><stop stop-color="#f1e5cd"/><stop offset=".5" stop-color="#c5b287"/><stop offset="1" stop-color="#8e7a57"/></linearGradient>
<linearGradient id="lavender" x1="0" y1="0" x2="1" y2="1"><stop stop-color="#e4e4ef"/><stop offset=".5" stop-color="#b0afcf"/><stop offset="1" stop-color="#777b9c"/></linearGradient>
<radialGradient id="shadow"><stop stop-color="#000" stop-opacity=".6"/><stop offset="1" stop-color="#000" stop-opacity="0"/></radialGradient>
<filter id="soft" x="-40%" y="-50%" width="180%" height="200%"><feDropShadow dx="0" dy="10" stdDeviation="8" flood-color="#04090e" flood-opacity=".42"/></filter>
</defs><g font-family="Segoe UI, Arial, sans-serif"><rect width="1200" height="276" rx="18" fill="url(#bg)"/><text x="30" y="41" fill="#a9c7d2" font-size="14" font-weight="600" letter-spacing="1.5">CURRENT FOCUS / DESIGN IN PROGRESS</text><path d="M135 165 H1063" fill="none" stroke="#334f60" stroke-width="2"/><g filter="url(#soft)"><g><polygon points="204.52,151.40 144.68,178.60 144.68,168.60 204.52,141.40" fill="#14242f" stroke="#d2e4ea" stroke-opacity=".17" stroke-width=".7" stroke-linejoin="round"/><polygon points="65.48,142.60 144.68,178.60 144.68,168.60 65.48,132.60" fill="#2a414f" stroke="#d2e4ea" stroke-opacity=".17" stroke-width=".7" stroke-linejoin="round"/><polygon points="125.32,105.40 204.52,141.40 144.68,168.60 65.48,132.60" fill="#3a5362" stroke="#d2e4ea" stroke-opacity=".17" stroke-width=".7" stroke-linejoin="round"/><polygon points="176.36,128.80 141.16,144.80 141.16,122.80 176.36,106.80" fill="#536c7c" stroke="#d2e4ea" stroke-opacity=".17" stroke-width=".7" stroke-linejoin="round"/><polygon points="93.64,123.20 141.16,144.80 141.16,122.80 93.64,101.20" fill="#7d95a5" stroke="#d2e4ea" stroke-opacity=".17" stroke-width=".7" stroke-linejoin="round"/><polygon points="128.84,85.20 176.36,106.80 141.16,122.80 93.64,101.20" fill="url(#metal)" stroke="#d2e4ea" stroke-opacity=".17" stroke-width=".7" stroke-linejoin="round"/></g></g><text x="99" y="204" fill="#dae8ed" font-size="20" font-weight="500">Source</text><g filter="url(#soft)"><g><polygon points="436.52,151.40 376.68,178.60 376.68,168.60 436.52,141.40" fill="#14242f" stroke="#d2e4ea" stroke-opacity=".17" stroke-width=".7" stroke-linejoin="round"/><polygon points="297.48,142.60 376.68,178.60 376.68,168.60 297.48,132.60" fill="#2a414f" stroke="#d2e4ea" stroke-opacity=".17" stroke-width=".7" stroke-linejoin="round"/><polygon points="357.32,105.40 436.52,141.40 376.68,168.60 297.48,132.60" fill="#3a5362" stroke="#d2e4ea" stroke-opacity=".17" stroke-width=".7" stroke-linejoin="round"/><polygon points="408.36,128.80 373.16,144.80 373.16,122.80 408.36,106.80" fill="#3b617b" stroke="#d2e4ea" stroke-opacity=".17" stroke-width=".7" stroke-linejoin="round"/><polygon points="325.64,123.20 373.16,144.80 373.16,122.80 325.64,101.20" fill="#658fa5" stroke="#d2e4ea" stroke-opacity=".17" stroke-width=".7" stroke-linejoin="round"/><polygon points="360.84,85.20 408.36,106.80 373.16,122.80 325.64,101.20" fill="url(#blue)" stroke="#d2e4ea" stroke-opacity=".17" stroke-width=".7" stroke-linejoin="round"/></g></g><text x="331" y="204" fill="#dae8ed" font-size="20" font-weight="500">Maker</text><g filter="url(#soft)"><g><polygon points="668.52,151.40 608.68,178.60 608.68,168.60 668.52,141.40" fill="#14242f" stroke="#d2e4ea" stroke-opacity=".17" stroke-width=".7" stroke-linejoin="round"/><polygon points="529.48,142.60 608.68,178.60 608.68,168.60 529.48,132.60" fill="#2a414f" stroke="#d2e4ea" stroke-opacity=".17" stroke-width=".7" stroke-linejoin="round"/><polygon points="589.32,105.40 668.52,141.40 608.68,168.60 529.48,132.60" fill="#3a5362" stroke="#d2e4ea" stroke-opacity=".17" stroke-width=".7" stroke-linejoin="round"/><polygon points="640.36,128.80 605.16,144.80 605.16,122.80 640.36,106.80" fill="#7b6c4a" stroke="#d2e4ea" stroke-opacity=".17" stroke-width=".7" stroke-linejoin="round"/><polygon points="557.64,123.20 605.16,144.80 605.16,122.80 557.64,101.20" fill="#ac976d" stroke="#d2e4ea" stroke-opacity=".17" stroke-width=".7" stroke-linejoin="round"/><polygon points="592.84,85.20 640.36,106.80 605.16,122.80 557.64,101.20" fill="url(#gold)" stroke="#d2e4ea" stroke-opacity=".17" stroke-width=".7" stroke-linejoin="round"/><polyline points="590.20,93.60 588.44,102.40 623.64,101.60" fill="none" stroke="#f1f7f3" stroke-width="2.5" stroke-linecap="round" stroke-linejoin="round"/></g></g><text x="563" y="204" fill="#dae8ed" font-size="20" font-weight="500">Checks</text><g filter="url(#soft)"><g><polygon points="900.52,151.40 840.68,178.60 840.68,168.60 900.52,141.40" fill="#14242f" stroke="#d2e4ea" stroke-opacity=".17" stroke-width=".7" stroke-linejoin="round"/><polygon points="761.48,142.60 840.68,178.60 840.68,168.60 761.48,132.60" fill="#2a414f" stroke="#d2e4ea" stroke-opacity=".17" stroke-width=".7" stroke-linejoin="round"/><polygon points="821.32,105.40 900.52,141.40 840.68,168.60 761.48,132.60" fill="#3a5362" stroke="#d2e4ea" stroke-opacity=".17" stroke-width=".7" stroke-linejoin="round"/><polygon points="872.36,128.80 837.16,144.80 837.16,122.80 872.36,106.80" fill="#416e60" stroke="#d2e4ea" stroke-opacity=".17" stroke-width=".7" stroke-linejoin="round"/><polygon points="789.64,123.20 837.16,144.80 837.16,122.80 789.64,101.20" fill="#709789" stroke="#d2e4ea" stroke-opacity=".17" stroke-width=".7" stroke-linejoin="round"/><polygon points="824.84,85.20 872.36,106.80 837.16,122.80 789.64,101.20" fill="url(#mint)" stroke="#d2e4ea" stroke-opacity=".17" stroke-width=".7" stroke-linejoin="round"/><polyline points="822.20,93.60 820.44,102.40 855.64,101.60" fill="none" stroke="#f1f7f3" stroke-width="2.5" stroke-linecap="round" stroke-linejoin="round"/></g></g><text x="795" y="204" fill="#dae8ed" font-size="20" font-weight="500">Checker</text><g filter="url(#soft)"><g><polygon points="1132.52,151.40 1072.68,178.60 1072.68,168.60 1132.52,141.40" fill="#14242f" stroke="#d2e4ea" stroke-opacity=".17" stroke-width=".7" stroke-linejoin="round"/><polygon points="993.48,142.60 1072.68,178.60 1072.68,168.60 993.48,132.60" fill="#2a414f" stroke="#d2e4ea" stroke-opacity=".17" stroke-width=".7" stroke-linejoin="round"/><polygon points="1053.32,105.40 1132.52,141.40 1072.68,168.60 993.48,132.60" fill="#3a5362" stroke="#d2e4ea" stroke-opacity=".17" stroke-width=".7" stroke-linejoin="round"/><polygon points="1104.36,128.80 1069.16,144.80 1069.16,122.80 1104.36,106.80" fill="#606383" stroke="#d2e4ea" stroke-opacity=".17" stroke-width=".7" stroke-linejoin="round"/><polygon points="1021.64,123.20 1069.16,144.80 1069.16,122.80 1021.64,101.20" fill="#9090b4" stroke="#d2e4ea" stroke-opacity=".17" stroke-width=".7" stroke-linejoin="round"/><polygon points="1056.84,85.20 1104.36,106.80 1069.16,122.80 1021.64,101.20" fill="url(#lavender)" stroke="#d2e4ea" stroke-opacity=".17" stroke-width=".7" stroke-linejoin="round"/></g></g><text x="1027" y="204" fill="#dae8ed" font-size="20" font-weight="500">Outcome</text><text x="30" y="246" fill="#92adbb" font-size="18" font-weight="400">Source evidence / bounded corrections / human review</text></g></svg>